<svg version="1.1" id="Layer_1" xmlns="http://www.w3.org/2000/svg" xmlns:xlink="http://www.w3.org/1999/xlink" x="0px" y="0px"
	 width="100%" viewBox="0 0 512 512" enable-background="new 0 0 512 512" xml:space="preserve">
<path fill="#000000" opacity="1.000000" stroke="none" 
	d="
M202.182922,458.891754 
	C139.643829,421.766632 99.467316,368.142365 80.860298,298.339447 
	C75.441353,278.010651 72.752342,257.224396 72.712379,236.169357 
	C72.619720,187.347229 72.741943,138.524597 72.562012,89.702950 
	C72.544792,85.031189 73.967979,83.056190 78.465927,81.769997 
	C135.882355,65.351654 193.247803,48.754761 250.605942,32.133335 
	C254.064774,31.131018 257.279694,30.876293 260.816376,31.900331 
	C318.657593,48.648140 376.511963,65.351357 434.411285,81.896751 
	C438.812714,83.154510 440.033966,85.335152 440.021912,89.676849 
	C439.891479,136.665741 440.072968,183.655640 439.898102,230.644241 
	C439.659637,294.719788 420.202087,352.126404 378.955292,401.506226 
	C346.976868,439.790161 306.856750,466.288849 259.394867,481.691620 
	C256.952148,482.484375 254.872406,482.077911 252.622559,481.342010 
	C235.154419,475.628204 218.419662,468.272217 202.182922,458.891754 
M315.604675,76.098251 
	C297.066040,70.751556 278.519379,65.432289 259.997681,60.027466 
	C257.335632,59.250648 254.874863,59.245289 252.188660,60.027908 
	C202.993744,74.360779 153.799255,88.696495 104.530891,102.773392 
	C100.181259,104.016159 99.247795,105.983055 99.259521,110.064667 
	C99.381065,152.392685 99.264153,194.721375 99.364037,237.049500 
	C99.412567,257.612061 102.157478,277.891296 108.066307,297.571259 
	C130.686478,372.910126 178.891266,424.757965 252.048859,453.533600 
	C255.232162,454.785706 258.025024,454.683594 261.170349,453.465942 
	C316.581360,432.013916 358.600800,395.338928 386.388031,342.766907 
	C403.539246,310.317719 412.678375,275.633606 412.843414,238.825027 
	C413.034698,196.164368 412.837677,153.501907 413.063049,110.841576 
	C413.090088,105.721794 411.404663,103.622498 406.550476,102.255135 
	C376.446533,93.775314 346.431793,84.978828 315.604675,76.098251 
z"/>
</svg>