<svg version="1.1" id="Layer_1" xmlns="http://www.w3.org/2000/svg" xmlns:xlink="http://www.w3.org/1999/xlink" x="0px" y="0px"
	 width="100%" viewBox="0 0 352 384" enable-background="new 0 0 352 384" xml:space="preserve">
<path fill="#000000" opacity="1.000000" stroke="none" 
	d="
M72.000038,295.760803 
	C132.322495,295.755249 192.144974,295.722015 251.967392,295.759155 
	C272.377258,295.771820 289.049042,308.172180 293.460876,328.075378 
	C298.148285,349.221588 288.437195,371.291931 264.479828,377.869629 
	C242.760162,383.833008 219.888474,371.696411 213.348633,350.813660 
	C211.868500,346.087372 211.553467,341.353394 211.343231,336.552063 
	C211.140747,331.927582 213.672989,328.817841 217.410980,329.082062 
	C221.736023,329.387848 223.190384,332.241943 223.365417,336.266632 
	C224.051300,352.036865 231.979263,362.829376 245.144470,366.105042 
	C261.246887,370.111542 277.542267,361.107605 281.486420,346.024506 
	C285.867157,329.271851 276.572601,313.385529 259.848389,308.907806 
	C256.553040,308.025513 253.231689,308.242859 249.917252,308.241547 
	C181.429703,308.214447 112.942139,308.219208 44.454586,308.216003 
	C42.788330,308.215942 41.119461,308.252899 39.456348,308.175293 
	C35.645260,307.997467 32.897945,306.274231 32.799011,302.231750 
	C32.693848,297.934723 35.461086,295.881897 39.507099,295.818604 
	C47.836857,295.688263 56.169876,295.766174 64.501556,295.759583 
	C66.834381,295.757751 69.167206,295.760223 72.000038,295.760803 
z"/>
<path fill="#000000" opacity="1.000000" stroke="none" 
	d="
M199.999969,111.256088 
	C176.505066,111.251968 153.510178,111.253662 130.515305,111.231079 
	C128.688843,111.229286 126.799095,111.325607 125.050194,110.908752 
	C121.995811,110.180748 120.049774,108.078461 120.031036,104.869797 
	C120.011703,101.558632 122.174095,99.676300 125.229187,99.073715 
	C127.163864,98.692116 129.208435,98.803329 131.203735,98.802780 
	C188.524323,98.787056 245.846664,98.536957 303.164337,98.943016 
	C318.917694,99.054626 332.036835,87.172943 334.118561,73.330391 
	C336.116119,60.047646 327.264252,44.798168 314.249908,41.354229 
	C292.940308,35.715145 274.770782,49.699745 275.210754,69.747963 
	C275.326691,75.030899 272.511505,78.234016 268.643707,78.065186 
	C265.150543,77.912712 262.879761,74.632370 262.758270,69.563141 
	C262.239990,47.935184 281.034180,28.557022 302.128601,27.502996 
	C327.905884,26.214985 346.662079,47.343628 346.425171,68.323662 
	C346.146606,92.991211 328.318909,111.185959 303.477264,111.235764 
	C269.151611,111.304588 234.825745,111.254738 199.999969,111.256088 
z"/>
<path fill="#000000" opacity="1.000000" stroke="none" 
	d="
M182.446487,88.921051 
	C174.010986,89.082512 166.020142,89.231453 158.029236,89.235641 
	C116.226410,89.257553 74.423561,89.243584 32.620728,89.237892 
	C30.789125,89.237640 28.944920,89.324921 27.128582,89.146935 
	C23.488379,88.790230 21.185123,86.677452 21.029455,83.058701 
	C20.865643,79.250626 23.407389,77.304161 26.940807,76.925308 
	C29.743120,76.624840 32.596050,76.764107 35.426517,76.763405 
	C82.725342,76.751640 130.024216,76.783295 177.322968,76.723389 
	C192.378006,76.704323 202.530930,68.931786 206.717270,54.556850 
	C210.988403,39.890766 202.128082,23.905758 187.536865,19.227924 
	C168.217636,13.034323 149.526016,26.932289 148.354813,47.279099 
	C148.307007,48.109421 148.348907,48.944508 148.325760,49.776730 
	C148.220657,53.558231 146.126144,55.895081 142.520798,55.971573 
	C138.815765,56.050186 136.963043,53.588070 136.657074,49.871490 
	C135.024521,30.041473 148.370636,11.605866 167.939667,6.736266 
	C189.962753,1.255992 213.050034,14.316305 218.170975,35.151779 
	C224.307556,60.119591 212.043472,81.642235 188.244720,87.648735 
	C186.472687,88.095970 184.676224,88.446342 182.446487,88.921051 
z"/>
<path fill="#000000" opacity="1.000000" stroke="none" 
	d="
M148.999969,286.231720 
	C109.866081,286.232239 71.232208,286.233185 32.598335,286.231537 
	C31.099802,286.231476 29.594110,286.295471 28.104136,286.175659 
	C24.289301,285.868835 21.801939,284.043274 21.723423,279.953857 
	C21.641226,275.672668 24.479841,274.251343 28.140720,273.823151 
	C29.127815,273.707703 30.136751,273.766388 31.135660,273.766357 
	C100.077133,273.763794 169.018600,273.763397 237.960068,273.762848 
	C238.126587,273.762848 238.293137,273.762726 238.459641,273.764496 
	C244.881653,273.832916 248.031219,275.896362 248.040192,280.040985 
	C248.049088,284.155701 244.877151,286.229004 238.424225,286.231171 
	C208.782806,286.241241 179.141388,286.233246 148.999969,286.231720 
z"/>
<path fill="#000000" opacity="1.000000" stroke="none" 
	d="
M88.997391,98.791489 
	C93.985855,98.803627 98.477219,98.732262 102.963448,98.852570 
	C106.953102,98.959557 109.934387,100.809898 109.906700,105.059898 
	C109.879242,109.275352 106.966682,111.212440 102.928108,111.216835 
	C76.159241,111.246002 49.390240,111.253670 22.621489,111.185753 
	C18.657303,111.175697 15.857677,109.376839 15.741642,104.971489 
	C15.639174,101.081139 18.199707,98.841942 23.155052,98.826157 
	C44.935871,98.756744 66.717026,98.793251 88.997391,98.791489 
z"/>
</svg>